<?xml version="1.0" encoding="utf-8"?>
<!-- Generator: Adobe Illustrator 25.4.1, SVG Export Plug-In . SVG Version: 6.00 Build 0)  -->
<svg version="1.1" id="Layer_1" xmlns="http://www.w3.org/2000/svg" xmlns:xlink="http://www.w3.org/1999/xlink" x="0px" y="0px"
	 viewBox="0 0 71.1 62.2" style="enable-background:new 0 0 71.1 62.2;" xml:space="preserve">
<style type="text/css">
	.st0{fill:#D9EAF2;}
	.st1{fill:#4A494B;}
	.st2{fill:none;stroke:#8D99A0;stroke-width:4;stroke-linecap:round;stroke-linejoin:round;}
	.st3{fill:#0074A2;}
	.st4{fill:#ED1651;}
	.st5{fill:#F79548;}
	.st6{fill:#22566E;}
	.st7{opacity:0.37;}
</style>
<g>
	<path class="st0" d="M71.1,42.9v14.2c0,2.8-2.3,5-5,5H5c-2.8,0-5-2.3-5-5V3c0-1.6,1.3-3,3-3h65.1c1.6,0,3,1.3,3,3v11.8V42.9z"/>
	<path class="st1" d="M71.1,8.4v3.8H0V3c0-1.6,1.3-3,3-3h65.1c1.6,0,3,1.3,3,3v0V8.4z"/>
	<g>
		<line class="st2" x1="19.2" y1="5.9" x2="19.4" y2="5.9"/>
	</g>
	<g>
		<line class="st2" x1="13.3" y1="5.9" x2="13.5" y2="5.9"/>
	</g>
	<g>
		<line class="st2" x1="7.4" y1="5.9" x2="7.5" y2="5.9"/>
	</g>
	<path class="st0" d="M52.9,12.1c0,1.2,0.5,2.2,1.3,2.9c0.7,0.7,1.6,1.1,2.6,1.1c2.2,0,4-1.7,4-4s-1.7-4-4-4
		C54.6,8.2,52.9,10,52.9,12.1z"/>
	<path class="st3" d="M56.8,6.7c-3,0-5.5,2.4-5.5,5.5c0,0.9,0.2,1.9,0.7,2.6L33.9,32.9c-0.9-0.8-2.1-1.2-3.4-1.2
		c-1,0-1.9,0.3-2.8,0.8l-5.6-4.6c0.4-0.8,0.6-1.6,0.6-2.5c0-3.1-2.4-5.5-5.5-5.5c-3,0-5.5,2.4-5.5,5.5c0,0.9,0.2,1.9,0.7,2.6
		l-9.5,9.5l2.1,2.1l9.5-9.5c0.8,0.4,1.7,0.7,2.6,0.7c1,0,2-0.3,2.8-0.8l5.6,4.6c-0.4,0.8-0.6,1.6-0.6,2.5c0,1.5,0.7,3,1.8,4
		c1,0.9,2.3,1.4,3.6,1.4c3.1,0,5.5-2.4,5.5-5.5c0-0.6-0.1-1.2-0.3-1.7l18.6-18.6c0.8,0.4,1.7,0.7,2.6,0.7c3.1,0,5.5-2.4,5.5-5.5
		S59.9,6.7,56.8,6.7z M15.7,27.1L15.7,27.1c-0.6-0.5-0.9-1.1-0.9-1.8c0-1.4,1.1-2.5,2.5-2.5c1.4,0,2.5,1,2.5,2.5s-1,2.5-2.5,2.5
		C16.7,27.8,16.1,27.5,15.7,27.1z M30.5,39.6c-0.6,0-1.2-0.2-1.6-0.6l-0.1-0.1c-0.5-0.4-0.8-1.1-0.8-1.7c0-1.4,1.1-2.5,2.5-2.5
		c1.4,0,2.5,1,2.5,2.5S31.9,39.6,30.5,39.6z M56.8,14.6c-0.6,0-1.2-0.2-1.6-0.6l-0.1-0.1c-0.5-0.4-0.8-1.1-0.8-1.7
		c0-1.4,1.1-2.5,2.5-2.5c1.4,0,2.5,1,2.5,2.5S58.2,14.6,56.8,14.6z"/>
	<polyline class="st4" points="5.4,62.2 5.4,53.7 10.7,53.7 10.7,62.2 	"/>
	<polyline class="st3" points="16,62.2 16,35.8 21.3,35.8 21.3,62.2 	"/>
	<polyline class="st5" points="26.5,62.2 26.5,46.4 31.8,46.4 31.8,62.2 	"/>
	<polyline class="st6" points="37.1,62.2 37.1,43.7 42.3,43.7 42.3,62.2 	"/>
	<g class="st7">
		<g>
			<path class="st1" d="M65.3,42H46.7v-6.4h18.6V42z M48.7,40h14.6v-2.4H48.7V40z"/>
		</g>
		<g>
			<rect x="46.7" y="48.8" class="st1" width="18.1" height="2"/>
		</g>
		<g>
			<rect x="46.7" y="55.2" class="st1" width="10.4" height="2"/>
		</g>
	</g>
</g>
</svg>
