<?xml version="1.0" encoding="utf-8"?>
<!-- Generator: Adobe Illustrator 25.4.1, SVG Export Plug-In . SVG Version: 6.00 Build 0)  -->
<svg version="1.1" id="Layer_1" xmlns="http://www.w3.org/2000/svg" xmlns:xlink="http://www.w3.org/1999/xlink" x="0px" y="0px"
	 viewBox="0 0 80.6 70.5" style="enable-background:new 0 0 80.6 70.5;" xml:space="preserve">
<style type="text/css">
	.st0{fill:#414042;}
</style>
<g>
	<rect x="9.2" y="57.7" class="st0" width="5.6" height="8.9"/>
	<rect x="20.3" y="38.8" class="st0" width="5.6" height="27.8"/>
	<rect x="31.4" y="49.9" class="st0" width="5.6" height="16.7"/>
	<rect x="42.5" y="47.1" class="st0" width="5.6" height="19.4"/>
	<path class="st0" d="M76.8,0h-73C1.7,0,0,1.7,0,3.8v62.9c0,2.1,1.7,3.8,3.8,3.8h73c2.1,0,3.8-1.7,3.8-3.8V3.8
		C80.6,1.7,78.9,0,76.8,0z M63.4,11.4c1.4,0,2.4,1,2.4,2.4s-1,2.4-2.4,2.4c-0.6,0-1.1-0.2-1.5-0.6l-0.1-0.1c-0.5-0.4-0.8-1-0.8-1.7
		C60.9,12.5,62,11.4,63.4,11.4z M22.8,3.8c1.4,0,2.5,1.1,2.5,2.5c0,1.4-1.1,2.5-2.5,2.5c-1.4,0-2.5-1.1-2.5-2.5
		C20.3,4.9,21.4,3.8,22.8,3.8z M15.2,3.8c1.4,0,2.5,1.1,2.5,2.5c0,1.4-1.1,2.5-2.5,2.5c-1.4,0-2.5-1.1-2.5-2.5
		C12.7,4.9,13.8,3.8,15.2,3.8z M7.6,3.8c1.4,0,2.5,1.1,2.5,2.5c0,1.4-1.1,2.5-2.5,2.5c-1.4,0-2.5-1.1-2.5-2.5
		C5.1,4.9,6.2,3.8,7.6,3.8z M76.8,66.2c0,0.3-0.2,0.5-0.5,0.5h-72c-0.3,0-0.5-0.2-0.5-0.5V12.7h53.8c-0.1,0.4-0.1,0.8-0.1,1.1
		c0,1,0.2,1.9,0.7,2.8L39.2,35.5c-1-0.8-2.2-1.2-3.6-1.2c-1.1,0-2,0.3-2.9,0.8L27,30.3c0.4-0.8,0.6-1.7,0.6-2.6
		c0-3.3-2.6-5.9-5.9-5.9c-3.3,0-5.9,2.7-5.9,5.9c0,1,0.2,1.9,0.7,2.8l-9.9,9.9l2.5,2.5l9.9-9.9c0.8,0.4,1.8,0.7,2.7,0.7
		c1.1,0,2.1-0.3,2.9-0.7l5.7,4.7c-0.4,0.8-0.6,1.7-0.6,2.6c0,1.7,0.7,3.3,2,4.3c1,1,2.4,1.6,4,1.6c3.3,0,5.9-2.6,5.9-5.9
		c0-0.6-0.1-1.2-0.3-1.8L60.6,19c0.8,0.4,1.8,0.7,2.7,0.7c3.3,0,5.9-2.6,5.9-5.9c0-0.4,0-0.8-0.1-1.1h7.6V66.2z M38,40.2
		c0,1.4-1,2.4-2.4,2.4c-0.6,0-1.1-0.2-1.5-0.6l-0.1-0.1c-0.5-0.4-0.8-1-0.8-1.7c0-1.3,1.1-2.4,2.4-2.4C37,37.8,38,38.8,38,40.2z
		 M24.1,27.7c0,1.4-1,2.4-2.4,2.4c-0.6,0-1.1-0.2-1.5-0.6l-0.1-0.1c-0.5-0.4-0.8-1-0.8-1.7c0-1.3,1.1-2.4,2.4-2.4
		C23.1,25.3,24.1,26.3,24.1,27.7z"/>
	<path class="st0" d="M52.5,47h19.6v-7.4H52.5V47z M55.5,42.6h13.6V44H55.5V42.6z"/>
	<rect x="52.5" y="52.8" class="st0" width="18.1" height="3"/>
	<rect x="52.5" y="59.2" class="st0" width="10.4" height="3"/>
</g>
</svg>
